<?xml version="1.0" encoding="UTF-8" standalone="no"?>
<!DOCTYPE svg PUBLIC "-//W3C//DTD SVG 1.1//EN" "http://www.w3.org/Graphics/SVG/1.1/DTD/svg11.dtd">
<svg xmlns="http://www.w3.org/2000/svg" xmlns:dc="http://purl.org/dc/elements/1.1/" xmlns:xl="http://www.w3.org/1999/xlink" version="1.1" viewBox="223 301 1064 400" width="1064" height="400">
  <defs/>
  <g id="Logo" fill-opacity="1" stroke-opacity="1" stroke-dasharray="none" stroke="none" fill="none">
    <title>Logo</title>
    <g id="Logo_Layer_1">
      <title>Layer 1</title>
      <g id="Graphic_4">
        <path d="M 587.63445 524.00175 C 587.63445 527.1424 587.236 529.9666 586.43914 532.4744 C 585.64226 534.9822 584.5876 537.18533 583.2751 539.0838 C 581.9626 540.9822 580.43914 542.5994 578.70476 543.93534 C 576.9704 545.2713 575.154 546.3611 573.25554 547.2049 C 571.3571 548.0486 569.43524 548.6697 567.4899 549.06815 C 565.5446 549.4666 563.7048 549.6658 561.9704 549.6658 L 512.4704 549.6658 L 512.4704 531.38456 L 561.82976 531.38456 C 564.31415 531.38456 566.1891 530.75175 567.45476 529.4861 C 568.7204 528.2205 569.3532 526.3924 569.3532 524.00175 C 569.1188 519.1267 566.6579 516.68925 561.9704 516.68925 L 533.63445 516.68925 C 529.6032 516.68925 526.18134 515.9861 523.3688 514.5799 C 520.5563 513.1736 518.2712 511.4158 516.51335 509.30644 C 514.75553 507.19705 513.4899 504.92364 512.7165 502.4861 C 511.94304 500.0486 511.5563 497.7752 511.5563 495.6658 C 511.5563 491.58767 512.2829 488.1541 513.736 485.36503 C 515.18914 482.57595 517.01725 480.31426 519.2204 478.5799 C 521.4235 476.8455 523.8141 475.5916 526.39226 474.81815 C 528.9704 474.0447 531.38444 473.658 533.63445 473.658 L 578.56414 473.658 L 578.56414 491.93925 L 533.7751 491.93925 C 532.8376 491.93925 532.0993 492.0447 531.5602 492.25565 C 531.02116 492.4666 530.6227 492.74784 530.3649 493.0994 C 530.1071 493.45097 529.95476 493.82597 529.9079 494.2244 C 529.861 494.62284 529.8376 495.00956 529.8376 495.38456 C 529.88445 496.13456 530.0251 496.7205 530.25945 497.1424 C 530.4938 497.56425 530.7868 497.86893 531.13835 498.05644 C 531.4899 498.24394 531.88835 498.3494 532.33367 498.37284 C 532.779 498.3963 533.2126 498.408 533.63445 498.408 L 561.9704 498.408 C 566.6579 498.408 570.64224 499.25174 573.9235 500.93925 C 577.2048 502.62676 579.8532 504.7478 581.8688 507.3025 C 583.88446 509.8572 585.3493 512.63455 586.26335 515.63456 C 587.1774 518.6346 587.63445 521.4236 587.63445 524.00175 Z" fill="#5f2cef"/>
      </g>
      <g id="Graphic_5">
        <path d="M 668.2829 491.93925 L 636.361 491.93925 L 636.361 549.6658 L 617.8688 549.6658 L 617.8688 491.93925 L 594.1032 491.93925 L 594.1032 473.658 L 617.8688 473.658 L 617.8688 448.8377 L 636.361 448.8377 L 636.361 473.658 L 668.2829 473.658 Z" fill="#5f2cef"/>
      </g>
      <g id="Graphic_6">
        <path d="M 744.87336 491.93925 L 703.74054 491.93925 C 701.25616 491.93925 699.3812 492.56034 698.11554 493.80253 C 696.8499 495.0447 696.2171 496.8611 696.2171 499.25175 L 696.2171 549.6658 L 677.93586 549.6658 L 677.93586 499.25175 C 677.93586 496.1111 678.3343 493.29864 679.1312 490.81425 C 679.92805 488.32986 680.99444 486.1385 682.3304 484.24003 C 683.6663 482.3416 685.2015 480.7244 686.93586 479.38847 C 688.6702 478.0525 690.4866 476.9627 692.3851 476.11894 C 694.2835 475.2752 696.2054 474.6541 698.1507 474.25565 C 700.096 473.8572 701.9124 473.658 703.5999 473.658 L 744.87336 473.658 Z" fill="#5f2cef"/>
      </g>
      <g id="Graphic_7">
        <path d="M 872.1591 510.9748 C 872.1591 515.09983 871.6318 519.00214 870.5771 522.68185 C 869.5224 526.36155 868.0341 529.7717 866.1123 532.9123 C 864.1904 536.05295 861.917 538.8654 859.292 541.3498 C 856.6669 543.8342 853.7959 545.9553 850.6787 547.7131 C 847.5615 549.4709 844.2451 550.81856 840.7295 551.75606 C 837.2138 552.6936 833.6279 553.1623 829.9716 553.1623 L 796.9951 553.1623 C 793.2919 553.1623 789.6826 552.6936 786.16695 551.75606 C 782.6513 550.81856 779.3349 549.4709 776.2177 547.7131 C 773.1005 545.9553 770.2295 543.8342 767.60445 541.3498 C 764.9794 538.8654 762.7177 536.05295 760.8193 532.9123 C 758.92085 529.7717 757.4443 526.36155 756.3896 522.68185 C 755.3349 519.00214 754.8076 515.09983 754.8076 510.9748 L 754.8076 494.5217 C 754.8076 488.33416 755.9677 482.66234 758.288 477.50606 C 760.6084 472.3498 763.7138 467.9084 767.60445 464.18185 C 771.4951 460.45526 775.9833 457.54904 781.0693 455.4631 C 786.1553 453.37715 791.4638 452.3342 796.9951 452.3342 L 829.9716 452.3342 C 833.6279 452.3342 837.2138 452.80293 840.7295 453.74044 C 844.2451 454.67794 847.5615 456.0256 850.6787 457.7834 C 853.7959 459.54123 856.6669 461.6623 859.292 464.1467 C 861.917 466.6311 864.1904 469.44355 866.1123 472.5842 C 868.0341 475.72483 869.5224 479.13495 870.5771 482.81466 C 871.6318 486.49436 872.1591 490.39667 872.1591 494.5217 Z M 853.7373 494.5217 C 853.7373 490.9123 853.081 487.6311 851.7685 484.67794 C 850.456 481.7248 848.7099 479.1936 846.5302 477.0842 C 844.3505 474.9748 841.831 473.35763 838.9716 472.2326 C 836.1122 471.1076 833.1123 470.56856 829.9716 470.61544 L 796.9951 470.61544 C 793.9482 470.56856 790.9834 471.0959 788.1005 472.19747 C 785.2177 473.29904 782.6631 474.8928 780.4365 476.9787 C 778.2099 479.06467 776.4287 481.5959 775.0927 484.57247 C 773.7568 487.54905 773.0888 490.8654 773.0888 494.5217 L 773.0888 510.9748 C 773.0888 514.6311 773.7451 517.93574 775.0576 520.8889 C 776.3701 523.842 778.1279 526.3615 780.331 528.4475 C 782.53415 530.5334 785.0771 532.1389 787.9599 533.2639 C 790.8427 534.3889 793.8544 534.92794 796.9951 534.88106 L 829.9716 534.88106 C 833.581 534.88106 836.8505 534.2834 839.7802 533.0881 C 842.7099 531.8928 845.206 530.24045 847.2685 528.13106 C 849.331 526.0217 850.9248 523.5022 852.0498 520.5725 C 853.1748 517.64277 853.7373 514.4436 853.7373 510.9748 Z M 845.792 481.1623 C 846.4951 482.19357 846.9638 483.30684 847.1982 484.50216 C 847.4326 485.6975 847.4326 486.86934 847.1982 488.0178 C 846.9638 489.1662 846.5068 490.24434 845.8271 491.25216 C 845.1474 492.26 844.2685 493.11544 843.1904 493.81856 L 793.831 526.7951 C 793.0341 527.4045 792.2138 527.8264 791.3701 528.06075 C 790.5263 528.2951 789.6591 528.4123 788.7685 528.4123 C 787.2685 528.4123 785.8388 528.06076 784.47945 527.3576 C 783.1201 526.6545 782.0185 525.6467 781.1748 524.3342 C 780.4716 523.30293 780.0029 522.18966 779.7685 520.99435 C 779.5341 519.799 779.5224 518.62716 779.7334 517.4787 C 779.9443 516.3303 780.3779 515.25216 781.0341 514.24435 C 781.6904 513.2365 782.5576 512.38107 783.6357 511.67794 L 833.1357 478.7014 C 834.167 477.99825 835.2802 477.5295 836.4755 477.2951 C 837.6709 477.06075 838.8427 477.06075 839.9912 477.2951 C 841.1396 477.5295 842.2177 477.9748 843.2255 478.63106 C 844.2334 479.2873 845.0888 480.13106 845.792 481.1623 Z" fill="#5f2cef"/>
      </g>
      <g id="Graphic_43">
        <path d="M 904.1844 491.93925 L 925.1585 491.93925 C 927.6429 491.93925 929.5179 492.56034 930.7835 493.80253 C 932.0487 495.0442 932.6815 496.85964 932.682 499.24884 L 932.682 549.6658 L 950.9632 549.6658 L 950.9632 499.25175 C 950.9632 496.62674 950.6585 494.18926 950.0492 491.93925 L 961.6437 491.93925 L 966.5023 491.93925 C 966.5033 491.93925 966.5043 491.93925 966.5053 491.93925 C 967.151 491.9394 967.7531 491.9815 968.3117 492.06555 L 968.3117 491.93925 L 972.8499 491.93925 C 975.3343 491.93925 977.1741 492.56034 978.3695 493.80253 C 979.5648 495.0447 980.1624 496.8611 980.1624 499.25175 L 980.1624 549.6658 L 998.4437 549.6658 L 998.4437 499.25175 C 998.4437 496.1111 998.0452 493.29864 997.2484 490.81425 C 996.4515 488.32986 995.3968 486.1385 994.0843 484.24003 C 992.7718 482.3416 991.2484 480.7244 989.514 479.38847 C 987.7796 478.0525 985.9632 476.9627 984.0648 476.11894 C 982.1663 475.2752 980.2562 474.6541 978.3343 474.25565 C 976.4124 473.8572 974.5843 473.658 972.8499 473.658 L 966.5038 473.658 C 966.5033 473.658 966.5028 473.658 966.5023 473.658 L 966.5023 473.658 L 961.6437 473.658 L 941.7523 473.658 L 941.7523 479.283 C 939.1273 477.31424 936.3617 475.88457 933.4554 474.99394 C 930.5491 474.1033 927.8304 473.658 925.2992 473.658 L 904.1844 473.658 L 904.1844 473.658 L 895.1359 473.658 C 893.8702 473.658 892.6749 473.89237 891.5499 474.3611 C 890.4249 474.8299 889.4406 475.4744 888.5968 476.2947 C 887.753 477.11503 887.0968 478.07596 886.628 479.17753 C 886.1593 480.2791 885.9249 481.4627 885.9249 482.7283 L 885.9249 549.6658 L 904.1844 549.6658 Z" fill="#5f2cef"/>
      </g>
    </g>
  </g>
</svg>
