<?xml version="1.0" encoding="UTF-8" standalone="no"?>
<!DOCTYPE svg PUBLIC "-//W3C//DTD SVG 1.1//EN" "http://www.w3.org/Graphics/SVG/1.1/DTD/svg11.dtd">
<svg xmlns="http://www.w3.org/2000/svg" xmlns:dc="http://purl.org/dc/elements/1.1/" xmlns:xl="http://www.w3.org/1999/xlink" version="1.1" viewBox="5 8 140 140" width="140" height="140">
  <defs/>
  <g id="Icon" fill-opacity="1" stroke-opacity="1" stroke-dasharray="none" stroke="none" fill="none">
    <title>Icon</title>
    <g id="Icon_Layer_1">
      <title>Layer 1</title>
      <g id="Graphic_7">
        <path d="M 133.296 86.78212 C 133.296 90.90714 132.76867 94.80944 131.71398 98.48915 C 130.65928 102.16886 129.17102 105.57898 127.24913 108.71962 C 125.32725 111.86026 123.05383 114.67273 120.42882 117.15712 C 117.8038 119.6415 114.93274 121.76258 111.81554 123.5204 C 108.69834 125.27822 105.38196 126.62586 101.86632 127.56337 C 98.35068 128.50087 94.76478 128.96962 91.10851 128.96962 L 58.131944 128.96962 C 54.4288 128.96962 50.81946 128.50087 47.30382 127.56337 C 43.788177 126.62586 40.471804 125.27822 37.3546 123.5204 C 34.237398 121.76258 31.366333 119.6415 28.74132 117.15712 C 26.116306 114.67273 23.85461 111.86026 21.956163 108.71962 C 20.057716 105.57898 18.581168 102.16886 17.526476 98.48915 C 16.471783 94.80944 15.944444 90.90714 15.944444 86.78212 L 15.944444 70.32899 C 15.944444 64.14146 17.10459 58.469644 19.424913 53.31337 C 21.745237 48.15709 24.850675 43.71573 28.74132 39.98915 C 32.631964 36.26257 37.1202 33.356347 42.206163 31.2704 C 47.292126 29.18445 52.600667 28.141493 58.131944 28.141493 L 91.10851 28.141493 C 94.76478 28.141493 98.35068 28.61024 101.86632 29.547743 C 105.38196 30.485248 108.69834 31.83289 111.81554 33.59071 C 114.93274 35.348533 117.8038 37.469606 120.42882 39.953993 C 123.05383 42.43838 125.32725 45.25085 127.24913 48.391493 C 129.17102 51.532134 130.65928 54.942256 131.71398 58.62196 C 132.76867 62.30167 133.296 66.20397 133.296 70.32899 Z M 114.87413 70.32899 C 114.87413 66.7196 114.21789 63.43838 112.90538 60.48524 C 111.59288 57.5321 109.8468 55.00088 107.6671 52.89149 C 105.4874 50.78211 102.9679 49.164936 100.10851 48.03993 C 97.24912 46.914925 94.24915 46.37587 91.10851 46.422743 L 58.131944 46.422743 C 55.085054 46.37587 52.12024 46.903206 49.237413 48.004774 C 46.354586 49.10634 43.799924 50.700076 41.57335 52.786024 C 39.346777 54.87197 37.565545 57.4032 36.2296 60.379774 C 34.893657 63.35635 34.225694 66.672725 34.225694 70.32899 L 34.225694 86.78212 C 34.225694 90.43839 34.881938 93.74304 36.194444 96.69618 C 37.50695 99.64932 39.264746 102.16883 41.46788 104.25477 C 43.67102 106.34072 46.21396 107.94617 49.09679 109.07118 C 51.979615 110.19619 54.991304 110.73524 58.131944 110.68837 L 91.10851 110.68837 C 94.7179 110.68837 97.9874 110.09072 100.9171 108.8954 C 103.8468 107.70008 106.34287 106.04775 108.40538 103.93837 C 110.46789 101.82898 112.06163 99.30948 113.18663 96.37977 C 114.31164 93.45007 114.87413 90.25089 114.87413 86.78212 Z M 106.92882 56.96962 C 107.63195 58.00087 108.10069 59.11414 108.33507 60.30946 C 108.56945 61.50478 108.56945 62.67664 108.33507 63.82509 C 108.10069 64.97353 107.64367 66.051644 106.96398 67.05946 C 106.28428 68.06728 105.40539 68.92274 104.32726 69.62587 L 54.96788 102.60243 C 54.171 103.21181 53.3507 103.63368 52.506944 103.86806 C 51.66319 104.10243 50.79601 104.21962 49.90538 104.21962 C 48.405374 104.21962 46.9757 103.86806 45.61632 103.16493 C 44.25694 102.4618 43.155386 101.454 42.31163 100.14149 C 41.608503 99.11024 41.13976 97.99697 40.90538 96.80165 C 40.671006 95.60633 40.659287 94.43447 40.870226 93.28602 C 41.081164 92.13758 41.514754 91.05947 42.171007 90.05165 C 42.82726 89.04383 43.69444 88.18837 44.77257 87.48524 L 94.27257 54.50868 C 95.30382 53.80555 96.4171 53.336807 97.61241 53.10243 C 98.80773 52.868054 99.9796 52.868054 101.12804 53.10243 C 102.27648 53.336807 103.3546 53.782115 104.36241 54.43837 C 105.37023 55.09462 106.22569 55.93836 106.92882 56.96962 Z" fill="#5f2cef"/>
      </g>
    </g>
  </g>
</svg>
