<?xml version="1.0" encoding="UTF-8" standalone="no"?>
<!DOCTYPE svg PUBLIC "-//W3C//DTD SVG 1.1//EN"
 "http://www.w3.org/Graphics/SVG/1.1/DTD/svg11.dtd">
<!-- Generated by graphviz version 12.2.1 (20241206.2353)
 -->
<!-- Title: BWE_DataFlow Pages: 1 -->
<svg width="1426pt" height="481pt"
 viewBox="0.00 0.00 1426.29 481.00" xmlns="http://www.w3.org/2000/svg" xmlns:xlink="http://www.w3.org/1999/xlink">
<g id="graph0" class="graph" transform="scale(1 1) rotate(0) translate(4 477)">
<title>BWE_DataFlow</title>
<polygon fill="white" stroke="none" points="-4,4 -4,-477 1422.29,-477 1422.29,4 -4,4"/>
<g id="clust1" class="cluster">
<title>cluster_delay</title>
<polygon fill="none" stroke="darkred" stroke-dasharray="5,2" points="508.71,-350 508.71,-465 1408,-465 1408,-350 508.71,-350"/>
<text text-anchor="middle" x="958.35" y="-447.7" font-family="Times,serif" font-size="14.00">Delay&#45;Based Estimation</text>
</g>
<g id="clust2" class="cluster">
<title>cluster_probe</title>
<polygon fill="none" stroke="purple" stroke-dasharray="5,2" points="507.08,-8 507.08,-149 598.83,-149 598.83,-8 507.08,-8"/>
<text text-anchor="middle" x="552.96" y="-131.7" font-family="Times,serif" font-size="14.00">Probe System</text>
</g>
<g id="clust3" class="cluster">
<title>cluster_pacer</title>
<polygon fill="none" stroke="darkgreen" stroke-dasharray="5,2" points="754.96,-69 754.96,-167 1121.71,-167 1121.71,-69 754.96,-69"/>
<text text-anchor="middle" x="938.33" y="-149.7" font-family="Times,serif" font-size="14.00">Pacing System</text>
</g>
<g id="clust4" class="cluster">
<title>cluster_alr</title>
<polygon fill="none" stroke="orange" stroke-dasharray="5,2" points="266.96,-112 266.96,-253 376.21,-253 376.21,-112 266.96,-112"/>
<text text-anchor="middle" x="321.58" y="-235.7" font-family="Times,serif" font-size="14.00">ALR System</text>
</g>
<!-- TWCC -->
<g id="node1" class="node">
<title>TWCC</title>
<ellipse fill="lightblue" stroke="black" cx="78.67" cy="-306" rx="78.67" ry="28.99"/>
<text text-anchor="middle" x="78.67" y="-309.2" font-family="Times,serif" font-size="14.00">TWCC Feedback</text>
<text text-anchor="middle" x="78.67" y="-292.7" font-family="Times,serif" font-size="14.00">(from remote)</text>
</g>
<!-- SSBE -->
<g id="node4" class="node">
<title>SSBE</title>
<path fill="gold" stroke="black" d="M817.21,-233.75C817.21,-233.75 765.96,-233.75 765.96,-233.75 759.96,-233.75 753.96,-227.75 753.96,-221.75 753.96,-221.75 753.96,-188.25 753.96,-188.25 753.96,-182.25 759.96,-176.25 765.96,-176.25 765.96,-176.25 817.21,-176.25 817.21,-176.25 823.21,-176.25 829.21,-182.25 829.21,-188.25 829.21,-188.25 829.21,-221.75 829.21,-221.75 829.21,-227.75 823.21,-233.75 817.21,-233.75"/>
<text text-anchor="middle" x="791.58" y="-216.45" font-family="Times,serif" font-size="14.00">SendSide</text>
<text text-anchor="middle" x="791.58" y="-199.95" font-family="Times,serif" font-size="14.00">Bandwidth</text>
<text text-anchor="middle" x="791.58" y="-183.45" font-family="Times,serif" font-size="14.00">Estimator</text>
</g>
<!-- TWCC&#45;&gt;SSBE -->
<g id="edge1" class="edge">
<title>TWCC&#45;&gt;SSBE</title>
<path fill="none" stroke="black" d="M115.36,-332.08C193.85,-386.01 383.48,-497.11 497.08,-402 516.47,-385.77 491.75,-366.1 507.08,-346 571.01,-262.17 634.81,-308.22 726.96,-257 735.11,-252.47 743.25,-246.86 750.86,-241.01"/>
<polygon fill="black" stroke="black" points="752.69,-244.02 758.32,-235.04 748.32,-238.56 752.69,-244.02"/>
<text text-anchor="middle" x="444.58" y="-442.3" font-family="Times,serif" font-size="14.00">TwccSendRecord[]</text>
</g>
<!-- ABE -->
<g id="node9" class="node">
<title>ABE</title>
<polygon fill="lightcyan" stroke="black" points="367.46,-354.5 275.71,-354.5 275.71,-313.5 367.46,-313.5 367.46,-354.5"/>
<text text-anchor="middle" x="321.58" y="-337.2" font-family="Times,serif" font-size="14.00">Acked Bitrate</text>
<text text-anchor="middle" x="321.58" y="-320.7" font-family="Times,serif" font-size="14.00">Estimator</text>
</g>
<!-- TWCC&#45;&gt;ABE -->
<g id="edge2" class="edge">
<title>TWCC&#45;&gt;ABE</title>
<path fill="none" stroke="black" d="M154.24,-314.67C189.72,-318.79 231.44,-323.64 264.23,-327.45"/>
<polygon fill="black" stroke="black" points="263.58,-330.9 273.92,-328.58 264.39,-323.95 263.58,-330.9"/>
<text text-anchor="middle" x="213.21" y="-328.93" font-family="Times,serif" font-size="14.00">acked packets</text>
</g>
<!-- LC -->
<g id="node10" class="node">
<title>LC</title>
<polygon fill="lightpink" stroke="black" points="588.21,-267.5 516.71,-267.5 516.71,-226.5 588.21,-226.5 588.21,-267.5"/>
<text text-anchor="middle" x="552.46" y="-250.2" font-family="Times,serif" font-size="14.00">Loss</text>
<text text-anchor="middle" x="552.46" y="-233.7" font-family="Times,serif" font-size="14.00">Controller</text>
</g>
<!-- TWCC&#45;&gt;LC -->
<g id="edge13" class="edge">
<title>TWCC&#45;&gt;LC</title>
<path fill="none" stroke="black" d="M155.05,-298.73C266.19,-287.91 464.41,-268.18 497.08,-262 499.72,-261.5 502.42,-260.94 505.13,-260.33"/>
<polygon fill="black" stroke="black" points="505.9,-263.74 514.79,-257.97 504.25,-256.94 505.9,-263.74"/>
<text text-anchor="middle" x="321.58" y="-290.45" font-family="Times,serif" font-size="14.00">packet results</text>
</g>
<!-- PE -->
<g id="node12" class="node">
<title>PE</title>
<polygon fill="plum" stroke="black" points="587.08,-57.5 517.83,-57.5 517.83,-16.5 587.08,-16.5 587.08,-57.5"/>
<text text-anchor="middle" x="552.46" y="-40.2" font-family="Times,serif" font-size="14.00">Probe</text>
<text text-anchor="middle" x="552.46" y="-23.7" font-family="Times,serif" font-size="14.00">Estimator</text>
</g>
<!-- TWCC&#45;&gt;PE -->
<g id="edge18" class="edge">
<title>TWCC&#45;&gt;PE</title>
<path fill="none" stroke="purple" d="M93.83,-277.18C120.22,-226.84 182.06,-123.62 266.96,-75 342.56,-31.7 447.6,-29.82 506.6,-32.98"/>
<polygon fill="purple" stroke="purple" points="506.06,-36.45 516.26,-33.58 506.49,-29.47 506.06,-36.45"/>
<text text-anchor="middle" x="321.58" y="-94.7" font-family="Times,serif" font-size="14.00">TwccSendRecord[]</text>
<text text-anchor="middle" x="321.58" y="-78.2" font-family="Times,serif" font-size="14.00">(filtered by cluster)</text>
</g>
<!-- Application -->
<g id="node2" class="node">
<title>Application</title>
<ellipse fill="lightblue" stroke="black" cx="1054.71" cy="-263" rx="54.42" ry="18"/>
<text text-anchor="middle" x="1054.71" y="-257.95" font-family="Times,serif" font-size="14.00">Application</text>
</g>
<!-- Network -->
<g id="node3" class="node">
<title>Network</title>
<ellipse fill="lightblue" stroke="black" cx="1357.12" cy="-106" rx="61.16" ry="28.99"/>
<text text-anchor="middle" x="1357.12" y="-109.2" font-family="Times,serif" font-size="14.00">Network</text>
<text text-anchor="middle" x="1357.12" y="-92.7" font-family="Times,serif" font-size="14.00">(packets out)</text>
</g>
<!-- SSBE&#45;&gt;Application -->
<g id="edge3" class="edge">
<title>SSBE&#45;&gt;Application</title>
<path fill="none" stroke="blue" stroke-width="2" d="M829.44,-229.15C837.94,-233.77 847.15,-238.07 856.21,-241 898.53,-254.69 948.31,-260.17 987.31,-262.24"/>
<polygon fill="blue" stroke="blue" stroke-width="2" points="986.92,-265.73 997.07,-262.68 987.24,-258.73 986.92,-265.73"/>
<text text-anchor="middle" x="916.96" y="-264.82" font-family="Times,serif" font-size="14.00">bandwidth estimate</text>
</g>
<!-- DC -->
<g id="node5" class="node">
<title>DC</title>
<polygon fill="lightcoral" stroke="black" points="588.21,-399.5 516.71,-399.5 516.71,-358.5 588.21,-358.5 588.21,-399.5"/>
<text text-anchor="middle" x="552.46" y="-382.2" font-family="Times,serif" font-size="14.00">Delay</text>
<text text-anchor="middle" x="552.46" y="-365.7" font-family="Times,serif" font-size="14.00">Controller</text>
</g>
<!-- SSBE&#45;&gt;DC -->
<g id="edge20" class="edge">
<title>SSBE&#45;&gt;DC</title>
<path fill="none" stroke="black" d="M784.15,-234.1C776.02,-263.86 759.03,-309.14 726.96,-334 684.97,-366.55 661.06,-343.96 609.96,-358.5 606.44,-359.5 602.84,-360.61 599.22,-361.78"/>
<polygon fill="black" stroke="black" points="598.25,-358.41 589.9,-364.94 600.5,-365.04 598.25,-358.41"/>
<text text-anchor="middle" x="668.46" y="-361.7" font-family="Times,serif" font-size="14.00">probe result</text>
</g>
<!-- SSBE&#45;&gt;PE -->
<g id="edge15" class="edge">
<title>SSBE&#45;&gt;PE</title>
<path fill="none" stroke="purple" d="M753.53,-181.79C750.24,-178.51 747.28,-174.91 744.96,-171 716.06,-122.37 768.83,-83.04 726.96,-45 692.83,-14 637.57,-17.18 598.6,-24.76"/>
<polygon fill="purple" stroke="purple" points="598.11,-21.29 589.05,-26.8 599.56,-28.14 598.11,-21.29"/>
<text text-anchor="middle" x="668.46" y="-64.7" font-family="Times,serif" font-size="14.00">start probe</text>
<text text-anchor="middle" x="668.46" y="-48.2" font-family="Times,serif" font-size="14.00">(ProbeClusterConfig)</text>
</g>
<!-- ALR -->
<g id="node13" class="node">
<title>ALR</title>
<polygon fill="wheat" stroke="black" points="352.83,-161.5 290.33,-161.5 290.33,-120.5 352.83,-120.5 352.83,-161.5"/>
<text text-anchor="middle" x="321.58" y="-144.2" font-family="Times,serif" font-size="14.00">ALR</text>
<text text-anchor="middle" x="321.58" y="-127.7" font-family="Times,serif" font-size="14.00">Detector</text>
</g>
<!-- SSBE&#45;&gt;ALR -->
<g id="edge23" class="edge">
<title>SSBE&#45;&gt;ALR</title>
<path fill="none" stroke="black" d="M753.86,-208.07C695.57,-210.98 580.9,-208.45 507.08,-153 499.14,-147.03 505.54,-138.22 497.08,-133 457.05,-108.26 401.43,-116.45 363.83,-126.74"/>
<polygon fill="black" stroke="black" points="363.33,-123.24 354.71,-129.4 365.29,-129.96 363.33,-123.24"/>
<text text-anchor="middle" x="552.46" y="-197.34" font-family="Times,serif" font-size="14.00">media sent</text>
</g>
<!-- Pacer -->
<g id="node15" class="node">
<title>Pacer</title>
<polygon fill="palegreen" stroke="black" points="1113.71,-134.75 995.71,-134.75 995.71,-77.25 1113.71,-77.25 1113.71,-134.75"/>
<text text-anchor="middle" x="1054.71" y="-117.45" font-family="Times,serif" font-size="14.00">Pacer</text>
<text text-anchor="middle" x="1054.71" y="-100.95" font-family="Times,serif" font-size="14.00">(LeakyBucket +</text>
<text text-anchor="middle" x="1054.71" y="-84.45" font-family="Times,serif" font-size="14.00">ProbeClusterState)</text>
</g>
<!-- SSBE&#45;&gt;Pacer -->
<g id="edge16" class="edge">
<title>SSBE&#45;&gt;Pacer</title>
<path fill="none" stroke="purple" d="M829.38,-178.45C832.42,-176 835.4,-173.49 838.21,-171 846.9,-163.27 846,-157.57 856.21,-152 904.44,-125.66 924.33,-142.09 977.71,-129 979.96,-128.45 982.24,-127.87 984.54,-127.27"/>
<polygon fill="purple" stroke="purple" points="985.18,-130.72 993.91,-124.73 983.35,-123.97 985.18,-130.72"/>
<text text-anchor="middle" x="916.96" y="-171.7" font-family="Times,serif" font-size="14.00">start probe</text>
<text text-anchor="middle" x="916.96" y="-155.2" font-family="Times,serif" font-size="14.00">(ProbeClusterConfig)</text>
</g>
<!-- PacerCtrl -->
<g id="node16" class="node">
<title>PacerCtrl</title>
<polygon fill="palegreen" stroke="black" points="820.21,-126.5 762.96,-126.5 762.96,-85.5 820.21,-85.5 820.21,-126.5"/>
<text text-anchor="middle" x="791.58" y="-109.2" font-family="Times,serif" font-size="14.00">Pacer</text>
<text text-anchor="middle" x="791.58" y="-92.7" font-family="Times,serif" font-size="14.00">Control</text>
</g>
<!-- SSBE&#45;&gt;PacerCtrl -->
<g id="edge4" class="edge">
<title>SSBE&#45;&gt;PacerCtrl</title>
<path fill="none" stroke="black" d="M791.58,-175.77C791.58,-164.03 791.58,-150.45 791.58,-138.4"/>
<polygon fill="black" stroke="black" points="795.08,-138.51 791.58,-128.51 788.08,-138.51 795.08,-138.51"/>
<text text-anchor="middle" x="780.33" y="-146.32" font-family="Times,serif" font-size="14.00">estimate</text>
</g>
<!-- DC&#45;&gt;SSBE -->
<g id="edge9" class="edge">
<title>DC&#45;&gt;SSBE</title>
<path fill="none" stroke="red" stroke-width="2" d="M567.29,-358.11C577.47,-344.42 592.52,-327.32 609.96,-317.5 656.17,-291.47 682.42,-322.81 726.96,-294 745.4,-282.07 760.17,-262.75 770.81,-245.16"/>
<polygon fill="red" stroke="red" stroke-width="2" points="773.8,-246.99 775.71,-236.57 767.72,-243.52 773.8,-246.99"/>
<text text-anchor="middle" x="668.46" y="-320.7" font-family="Times,serif" font-size="14.00">delay estimate</text>
</g>
<!-- AGA -->
<g id="node6" class="node">
<title>AGA</title>
<polygon fill="lightyellow" stroke="black" points="838.21,-399.5 744.96,-399.5 744.96,-358.5 838.21,-358.5 838.21,-399.5"/>
<text text-anchor="middle" x="791.58" y="-382.2" font-family="Times,serif" font-size="14.00">Arrival Group</text>
<text text-anchor="middle" x="791.58" y="-365.7" font-family="Times,serif" font-size="14.00">Accumulator</text>
</g>
<!-- DC&#45;&gt;AGA -->
<g id="edge5" class="edge">
<title>DC&#45;&gt;AGA</title>
<path fill="none" stroke="black" d="M588.7,-379C626.8,-379 688.1,-379 733.17,-379"/>
<polygon fill="black" stroke="black" points="733.04,-382.5 743.04,-379 733.04,-375.5 733.04,-382.5"/>
<text text-anchor="middle" x="668.46" y="-382.2" font-family="Times,serif" font-size="14.00">acked packets</text>
</g>
<!-- TE -->
<g id="node7" class="node">
<title>TE</title>
<polygon fill="lightyellow" stroke="black" points="1089.33,-399.5 1020.08,-399.5 1020.08,-358.5 1089.33,-358.5 1089.33,-399.5"/>
<text text-anchor="middle" x="1054.71" y="-382.2" font-family="Times,serif" font-size="14.00">Trendline</text>
<text text-anchor="middle" x="1054.71" y="-365.7" font-family="Times,serif" font-size="14.00">Estimator</text>
</g>
<!-- AGA&#45;&gt;TE -->
<g id="edge6" class="edge">
<title>AGA&#45;&gt;TE</title>
<path fill="none" stroke="black" d="M838.45,-377.79C844.42,-377.67 850.46,-377.57 856.21,-377.5 910.2,-376.86 923.71,-376.97 977.71,-377.5 987.57,-377.6 998.15,-377.77 1008.2,-377.96"/>
<polygon fill="black" stroke="black" points="1008.08,-381.45 1018.15,-378.15 1008.22,-374.46 1008.08,-381.45"/>
<text text-anchor="middle" x="916.96" y="-380.7" font-family="Times,serif" font-size="14.00">InterGroupDelayDelta</text>
</g>
<!-- RC -->
<g id="node8" class="node">
<title>RC</title>
<polygon fill="lightyellow" stroke="black" points="1400,-415.5 1314.25,-415.5 1314.25,-374.5 1400,-374.5 1400,-415.5"/>
<text text-anchor="middle" x="1357.12" y="-398.2" font-family="Times,serif" font-size="14.00">Rate Control</text>
<text text-anchor="middle" x="1357.12" y="-381.7" font-family="Times,serif" font-size="14.00">(AIMD)</text>
</g>
<!-- TE&#45;&gt;RC -->
<g id="edge7" class="edge">
<title>TE&#45;&gt;RC</title>
<path fill="none" stroke="black" d="M1089.68,-377.54C1133.36,-376.06 1211.49,-374.79 1277.96,-381 1286.07,-381.76 1294.61,-382.91 1302.94,-384.24"/>
<polygon fill="black" stroke="black" points="1302.17,-387.66 1312.62,-385.88 1303.34,-380.76 1302.17,-387.66"/>
<text text-anchor="middle" x="1204.83" y="-400.7" font-family="Times,serif" font-size="14.00">BandwidthUsage</text>
<text text-anchor="middle" x="1204.83" y="-384.2" font-family="Times,serif" font-size="14.00">(overuse/normal/underuse)</text>
</g>
<!-- RC&#45;&gt;DC -->
<g id="edge8" class="edge">
<title>RC&#45;&gt;DC</title>
<path fill="none" stroke="black" d="M1313.86,-407.22C1302.32,-410.02 1289.74,-412.59 1277.96,-414 1042.74,-442.18 981.67,-418.41 744.96,-409 684.87,-406.61 668.75,-412.61 609.96,-400 606.43,-399.24 602.82,-398.31 599.23,-397.26"/>
<polygon fill="black" stroke="black" points="600.59,-394.02 589.99,-394.29 598.44,-400.68 600.59,-394.02"/>
<text text-anchor="middle" x="916.96" y="-426.83" font-family="Times,serif" font-size="14.00">estimated bitrate</text>
</g>
<!-- ABE&#45;&gt;DC -->
<g id="edge10" class="edge">
<title>ABE&#45;&gt;DC</title>
<path fill="none" stroke="black" d="M367.8,-342.89C407.61,-350.72 465.31,-362.06 505.37,-369.94"/>
<polygon fill="black" stroke="black" points="504.46,-373.33 514.95,-371.82 505.81,-366.46 504.46,-373.33"/>
<text text-anchor="middle" x="444.58" y="-387.83" font-family="Times,serif" font-size="14.00">instantaneous</text>
<text text-anchor="middle" x="444.58" y="-371.33" font-family="Times,serif" font-size="14.00">bitrate</text>
</g>
<!-- ABE&#45;&gt;LC -->
<g id="edge11" class="edge">
<title>ABE&#45;&gt;LC</title>
<path fill="none" stroke="black" d="M367.63,-319.02C375.73,-316.53 384.12,-314.09 392.08,-312 438.2,-299.9 453.9,-310.21 497.08,-290 505.36,-286.13 513.51,-280.77 520.88,-275.14"/>
<polygon fill="black" stroke="black" points="523,-277.93 528.58,-268.92 518.6,-272.49 523,-277.93"/>
<text text-anchor="middle" x="444.58" y="-331.7" font-family="Times,serif" font-size="14.00">instantaneous</text>
<text text-anchor="middle" x="444.58" y="-315.2" font-family="Times,serif" font-size="14.00">bitrate</text>
</g>
<!-- LC&#45;&gt;SSBE -->
<g id="edge12" class="edge">
<title>LC&#45;&gt;SSBE</title>
<path fill="none" stroke="red" stroke-width="2" d="M588.7,-240.76C629.06,-233.61 695.48,-221.85 741.03,-213.78"/>
<polygon fill="red" stroke="red" stroke-width="2" points="741.36,-217.27 750.6,-212.08 740.14,-210.38 741.36,-217.27"/>
<text text-anchor="middle" x="668.46" y="-240.05" font-family="Times,serif" font-size="14.00">loss estimate</text>
</g>
<!-- PC -->
<g id="node11" class="node">
<title>PC</title>
<polygon fill="plum" stroke="black" points="581.08,-116.5 523.83,-116.5 523.83,-75.5 581.08,-75.5 581.08,-116.5"/>
<text text-anchor="middle" x="552.46" y="-99.2" font-family="Times,serif" font-size="14.00">Probe</text>
<text text-anchor="middle" x="552.46" y="-82.7" font-family="Times,serif" font-size="14.00">Control</text>
</g>
<!-- PC&#45;&gt;SSBE -->
<g id="edge14" class="edge">
<title>PC&#45;&gt;SSBE</title>
<path fill="none" stroke="black" d="M581.5,-109.19C590.46,-113.05 600.5,-117.03 609.96,-120 660.65,-135.91 682.82,-114.93 726.96,-144.5 738.78,-152.42 735.11,-160.71 744.96,-171 745.13,-171.18 745.3,-171.36 745.47,-171.53"/>
<polygon fill="black" stroke="black" points="742.99,-174.01 752.68,-178.29 747.78,-168.9 742.99,-174.01"/>
<text text-anchor="middle" x="668.46" y="-147.7" font-family="Times,serif" font-size="14.00">ProbeClusterConfig</text>
</g>
<!-- PE&#45;&gt;SSBE -->
<g id="edge19" class="edge">
<title>PE&#45;&gt;SSBE</title>
<path fill="none" stroke="purple" stroke-width="2" d="M586.71,-57.89C590.88,-60.83 595.02,-63.9 598.83,-67 604.23,-71.38 603.79,-74.78 609.96,-78 656.83,-102.45 688.38,-63.35 726.96,-99.5 750.87,-121.91 726.77,-143.74 744.96,-171 745.03,-171.11 745.11,-171.23 745.18,-171.34"/>
<polygon fill="purple" stroke="purple" stroke-width="2" points="742.39,-173.46 751.54,-178.8 747.72,-168.92 742.39,-173.46"/>
<text text-anchor="middle" x="668.46" y="-102.7" font-family="Times,serif" font-size="14.00">ProbeResult</text>
</g>
<!-- LCE -->
<g id="node14" class="node">
<title>LCE</title>
<polygon fill="wheat" stroke="black" points="368.21,-220.5 274.96,-220.5 274.96,-179.5 368.21,-179.5 368.21,-220.5"/>
<text text-anchor="middle" x="321.58" y="-203.2" font-family="Times,serif" font-size="14.00">Link Capacity</text>
<text text-anchor="middle" x="321.58" y="-186.7" font-family="Times,serif" font-size="14.00">Estimator</text>
</g>
<!-- PE&#45;&gt;LCE -->
<g id="edge24" class="edge">
<title>PE&#45;&gt;LCE</title>
<path fill="none" stroke="orange" d="M517.35,-55.1C513.32,-58.55 509.72,-62.51 507.08,-67 493.77,-89.7 515.68,-166.38 497.08,-185 481.02,-201.08 424.22,-203.5 379.73,-202.72"/>
<polygon fill="orange" stroke="orange" points="380.02,-199.23 369.94,-202.49 379.85,-206.23 380.02,-199.23"/>
<text text-anchor="middle" x="444.58" y="-206.05" font-family="Times,serif" font-size="14.00">ALR probe results</text>
</g>
<!-- ALR&#45;&gt;LC -->
<g id="edge22" class="edge">
<title>ALR&#45;&gt;LC</title>
<path fill="none" stroke="black" d="M352.99,-138.72C397.16,-136.08 476.1,-134.15 497.08,-152 512.35,-165 498,-178.12 507.08,-196 511.04,-203.8 516.46,-211.38 522.14,-218.21"/>
<polygon fill="black" stroke="black" points="519.15,-220.11 528.4,-225.28 524.4,-215.47 519.15,-220.11"/>
<text text-anchor="middle" x="444.58" y="-171.7" font-family="Times,serif" font-size="14.00">ALR state</text>
<text text-anchor="middle" x="444.58" y="-155.2" font-family="Times,serif" font-size="14.00">(start time)</text>
</g>
<!-- ALR&#45;&gt;PC -->
<g id="edge21" class="edge">
<title>ALR&#45;&gt;PC</title>
<path fill="none" stroke="black" d="M336.26,-120.01C348.58,-103.21 368.37,-80.87 392.08,-71 435.16,-53.06 451.49,-61.02 497.08,-71 502.38,-72.16 507.79,-73.89 513.03,-75.91"/>
<polygon fill="black" stroke="black" points="511.52,-79.06 522.09,-79.76 514.26,-72.62 511.52,-79.06"/>
<text text-anchor="middle" x="444.58" y="-90.7" font-family="Times,serif" font-size="14.00">ALR state</text>
<text text-anchor="middle" x="444.58" y="-74.2" font-family="Times,serif" font-size="14.00">(start time)</text>
</g>
<!-- LCE&#45;&gt;LC -->
<g id="edge25" class="edge">
<title>LCE&#45;&gt;LC</title>
<path fill="none" stroke="orange" stroke-width="2" d="M368.53,-218.04C376.3,-220.65 384.36,-223.1 392.08,-225 428.87,-234.05 471.41,-239.69 503.28,-242.98"/>
<polygon fill="orange" stroke="orange" stroke-width="2" points="502.93,-246.47 513.23,-243.96 503.62,-239.5 502.93,-246.47"/>
<text text-anchor="middle" x="444.58" y="-245.19" font-family="Times,serif" font-size="14.00">capacity estimate</text>
</g>
<!-- Pacer&#45;&gt;Network -->
<g id="edge27" class="edge">
<title>Pacer&#45;&gt;Network</title>
<path fill="none" stroke="blue" stroke-width="2" d="M1113.99,-106C1162.2,-106 1230.94,-106 1282.87,-106"/>
<polygon fill="blue" stroke="blue" stroke-width="2" points="1282.66,-109.5 1292.66,-106 1282.66,-102.5 1282.66,-109.5"/>
<text text-anchor="middle" x="1204.83" y="-125.7" font-family="Times,serif" font-size="14.00">paced packets</text>
<text text-anchor="middle" x="1204.83" y="-109.2" font-family="Times,serif" font-size="14.00">(with cluster ID)</text>
</g>
<!-- Pacer&#45;&gt;SSBE -->
<g id="edge17" class="edge">
<title>Pacer&#45;&gt;SSBE</title>
<path fill="none" stroke="purple" d="M1033.98,-135.07C1020.35,-152.65 1000.6,-173.77 977.71,-185 954.43,-196.42 887.64,-201.38 841.01,-203.49"/>
<polygon fill="purple" stroke="purple" points="840.98,-199.99 831.14,-203.91 841.27,-206.99 840.98,-199.99"/>
<text text-anchor="middle" x="916.96" y="-222.42" font-family="Times,serif" font-size="14.00">probe complete</text>
<text text-anchor="middle" x="916.96" y="-205.92" font-family="Times,serif" font-size="14.00">(cluster_id)</text>
</g>
<!-- PacerCtrl&#45;&gt;Pacer -->
<g id="edge26" class="edge">
<title>PacerCtrl&#45;&gt;Pacer</title>
<path fill="none" stroke="black" d="M820.66,-100.62C831.69,-98.76 844.5,-96.91 856.21,-96 910.04,-91.8 923.82,-92.47 977.71,-96 979.76,-96.13 981.84,-96.29 983.94,-96.46"/>
<polygon fill="black" stroke="black" points="983.49,-99.93 993.77,-97.39 984.14,-92.96 983.49,-99.93"/>
<text text-anchor="middle" x="916.96" y="-115.7" font-family="Times,serif" font-size="14.00">pacing_rate</text>
<text text-anchor="middle" x="916.96" y="-99.2" font-family="Times,serif" font-size="14.00">padding_rate</text>
</g>
</g>
</svg>
